# xmcd
#
# Track frame offsets:
#	150
#	13893
#	29320
#	52589
#	68916
#	83584
#	105882
#	120898
#	146667
#	162566
#
# Disc length: 2476 seconds
#
# Revision: 0
# Processed by: cddbd v1.5.2PL0 Copyright (c) Steve Scherf et al.
# Submitted via: EasyCDDAExtractor 9.0.0.1
#
DISCID=7109aa0a
DTITLE=Paul Irwin - Behold The Lamb
DYEAR=1900
DGENRE=
TTITLE0=Will there be any stars?
TTITLE1=Hope of the ages
TTITLE2=Behold the Lamb
TTITLE3=But for the blood
TTITLE4=He'd still be God
TTITLE5=Because He lives
TTITLE6=God delivers again
TTITLE7=It it well (with my soul)
TTITLE8=Is anything to hard for God?
TTITLE9=Come to the Saviour Now
EXTD=
EXTT0=
EXTT1=
EXTT2=
EXTT3=
EXTT4=
EXTT5=
EXTT6=
EXTT7=
EXTT8=
EXTT9=
PLAYORDER=
